# xmcd
#
# Track frame offsets: 
#        150
#        21288
#        45154
#        63505
#
# Disc length: 1177 seconds
#
# Revision: 1
# Processed by: cddbd v1.5.2PL0 Copyright (c) Steve Scherf et al.
# Submitted via: ExactAudioCopy v0.99pb4
#
DISCID=29049704
DTITLE=The Austerity Program - Backsliders And Apostates Will Burn
DYEAR=2010
DGENRE=Noise Rock
TTITLE0=Song 25
TTITLE1=Song 26
TTITLE2=Song 27
TTITLE3=Song 29
EXTD=
EXTT0=
EXTT1=
EXTT2=
EXTT3=
PLAYORDER=
